<svg xmlns="http://www.w3.org/2000/svg" width="196.252" height="25" viewBox="0 0 196.252 25"><g transform="translate(174 -47)"><g transform="translate(-8.351 53.905)"><path d="M294.786,107.587l-1.311-2.272h-2.624l1.311-2.272-1.311-2.272h-2.624l-1.314,2.272L285.6,100.77h-2.624l-1.314,2.272,1.314,2.272h-2.624l-1.314,2.272,1.314,2.272h2.624l-1.314,2.272,1.314,2.272H285.6l1.311-2.272,1.314,2.272h2.624l1.311-2.272-1.311-2.272h2.624Z" transform="translate(-279.04 -100.77)" fill="#64c8fa"/><path d="M350.538,105.315H345.99V100.77h-4.545v4.545H336.9v4.545h4.545V114.4h4.545V109.86h4.548Z" transform="translate(-319.934 -100.77)" fill="#64c8fa"/></g><g transform="translate(-174 47)"><path d="M0,13.433a5.684,5.684,0,0,0,5.683,5.683H12.5a1.138,1.138,0,1,1,0,2.275H0v4.545H12.5a5.684,5.684,0,0,0,0-11.368H5.683a1.138,1.138,0,0,1,0-2.275h12.5V7.75H5.683A5.684,5.684,0,0,0,0,13.433Z" transform="translate(0 -5.478)" fill="#fff"/><path d="M214.963,89.815h12.5V85.27h-12.5a5.683,5.683,0,1,0,0,11.365h6.817a1.138,1.138,0,1,1,0,2.275h-12.5v4.545h12.5a5.683,5.683,0,0,0,0-11.365h-6.817a1.138,1.138,0,0,1,0-2.275Z" transform="translate(-64.086 -82.91)" fill="#fff"/><path d="M74.3,85.26H69.76v18.183H87.943V98.9H74.3Z" transform="translate(34.523 -82.903)" fill="#fff"/><path d="M83.4,14.2,74.3,4.736l-.182-.191L69.76,0V20.455H74.3V10.8L87.943,25V2.272H83.4Z" transform="translate(-49.305)" fill="#fff"/><path d="M148.62,25.94a9.09,9.09,0,1,0-9.09-9.09A9.09,9.09,0,0,0,148.62,25.94Zm0-13.638a4.545,4.545,0,1,1-4.545,4.545A4.545,4.545,0,0,1,148.62,12.3Z" transform="translate(-98.617 -5.485)" fill="#fff"/><path d="M153.165,94.36a4.545,4.545,0,0,1-9.09,0h0V85.27H139.53v9.09a9.09,9.09,0,1,0,18.18,0h0V85.27h-4.545Z" transform="translate(-14.789 -82.91)" fill="#fff"/><path d="M11.365,85.26H0V89.8H0V94.35H0v4.545H0v4.545H4.545V98.895h6.817a6.817,6.817,0,0,0,0-13.635Zm0,9.093H4.548V89.808h6.817a2.272,2.272,0,1,1,0,4.545Z" transform="translate(83.828 -82.903)" fill="#fff"/><path d="M227.463,25.933V19.872h0V7.75h-4.545v8.333l-4.545-3.788-4.548,3.788V7.75H209.28V25.933l9.093-7.577Z" transform="translate(-147.915 -5.478)" fill="#fff"/></g></g></svg>